<svg xmlns="http://www.w3.org/2000/svg" viewBox="0 0 64 64" width="512" height="512">
  <rect width="100%" height="100%" fill="none"/>
  <!-- green accent shape -->
  <path d="M40 8c6 2 12 8 10 20-1.6 9.7-7 14-9 16-2.6 2.5-11 7-18 6-4.5-.6-6-3-6-6 0-5 2-14 8-18 6-4.5 12-16 15-24z" fill="#9fe3c9" />
  <!-- ear outline -->
  <path d="M24 52c4 0 8-2 11-4 6-4 10-10 11-16 1-7-1-14-6-17-4-2-10-1-14 3-3 3-6 8-6 14 0 7 2 12 6 18 1 2 2 4 2 5" fill="none" stroke="#000" stroke-width="2.5" stroke-linecap="round" stroke-linejoin="round"/>
  <!-- inner ear detail -->
  <path d="M32 34c1.5-4 4-6 7-5" fill="none" stroke="#000" stroke-width="1.8" stroke-linecap="round"/>
  <!-- sound lines -->
  <path d="M6 28c2-1 4-2 6-3" stroke="#000" stroke-width="2" fill="none" stroke-linecap="round"/>
  <path d="M6 34c3-1 5-2 7-3" stroke="#9fe3c9" stroke-width="3" fill="none" stroke-linecap="round"/>
</svg>